<svg width="137" height="24" viewBox="0 0 137 24" fill="none" xmlns="http://www.w3.org/2000/svg">
<g clip-path="url(#clip0_81_4943)">
<path fill-rule="evenodd" clip-rule="evenodd" d="M53.3695 8.09785V16.1544H57.7912L58.7283 18.84H53.3695C51.8926 18.84 50.6953 17.6376 50.6953 16.1544V8.09785C50.6953 6.61468 51.8926 5.41232 53.3695 5.41232H57.7912V8.09785H58.7283V2.7268C58.7283 1.98521 59.3278 1.38403 60.0672 1.38403H61.406V17.4972C61.406 18.2388 60.8066 18.84 60.0672 18.84H58.7283V8.09785H53.3695ZM66.7579 18.84C65.281 18.84 64.0837 17.6376 64.0837 16.1545V13.4689C64.0837 11.9857 65.281 10.7834 66.7579 10.7834H71.1796V13.4689H72.1167V8.09785H64.7522L64.7522 6.75509C64.7522 6.0135 65.3509 5.41232 66.0893 5.41232H72.1167C73.5956 5.41232 74.7944 6.61468 74.7944 8.09785V17.4972C74.7944 18.2388 74.195 18.84 73.4556 18.84H72.1167V13.4689H66.7579V16.1544H71.1796L72.1167 18.84C68.8157 18.84 67.0294 18.84 66.7579 18.84ZM77.4721 18.84V6.75509C77.4721 6.0135 78.0707 5.41232 78.8092 5.41232H80.1462V17.4972C80.1462 18.2388 79.5476 18.84 78.8092 18.84H77.4721ZM80.1462 2.73557C80.1462 3.11003 80.0181 3.42597 79.7617 3.68341C79.5054 3.94084 79.1908 4.06956 78.8179 4.06956C78.445 4.06956 78.1275 3.94084 77.8654 3.68341C77.6032 3.42597 77.4721 3.11003 77.4721 2.73557C77.4721 2.34942 77.6032 2.02762 77.8654 1.77019C78.1275 1.51275 78.445 1.38403 78.8179 1.38403C79.1908 1.38403 79.5054 1.51275 79.7617 1.77019C80.0181 2.02762 80.1462 2.34942 80.1462 2.73557ZM82.8275 18.84V2.7268C82.8275 1.98521 83.4261 1.38403 84.1645 1.38403H85.5016V17.4972C85.5016 18.2388 84.903 18.84 84.1645 18.84H82.8275ZM91.851 18.8454L88.2408 7.48159C88.0249 6.7724 88.4316 6.02173 89.1378 5.80491L90.4097 5.41232L93.3551 15.0633L96.006 6.36286C96.2219 5.65367 96.96 5.25453 97.6662 5.47135L98.8935 5.86394L94.3459 20.9674C94.0022 22.0964 92.9643 22.8676 91.7887 22.8678L89.578 22.8683C88.8396 22.8683 88.2409 22.2673 88.2408 21.5257L88.2409 20.1827H90.4632C91.1996 20.1827 91.8481 19.5848 91.851 18.8454Z" fill="#0E1217"/>
<path d="M103.254 19.0146V17.1171H101.309V19.0146H103.254ZM109.071 19.1387C110.014 19.1387 110.812 18.9023 111.466 18.4294C112.121 17.9565 112.577 17.324 112.837 16.532V19.0146H114.446V5.89215H112.837V11.7618C112.577 10.9697 112.121 10.3372 111.466 9.86434C110.812 9.39146 110.014 9.15502 109.071 9.15502C108.21 9.15502 107.444 9.356 106.772 9.75795C106.1 10.1599 105.573 10.7392 105.19 11.4958C104.807 12.2524 104.615 13.139 104.615 14.1557C104.615 15.1724 104.807 16.0561 105.19 16.8068C105.573 17.5575 106.1 18.1338 106.772 18.5358C107.444 18.9377 108.21 19.1387 109.071 19.1387ZM109.53 17.7201C108.54 17.7201 107.747 17.4038 107.152 16.7714C106.557 16.1389 106.259 15.267 106.259 14.1557C106.259 13.0445 106.557 12.1726 107.152 11.5401C107.747 10.9076 108.54 10.5914 109.53 10.5914C110.167 10.5914 110.736 10.7362 111.237 11.0259C111.738 11.3155 112.129 11.7322 112.412 12.276C112.695 12.8198 112.837 13.4464 112.837 14.1557C112.837 14.8651 112.695 15.4887 112.412 16.0266C112.129 16.5645 111.738 16.9812 111.237 17.2767C110.736 17.5723 110.167 17.7201 109.53 17.7201ZM121.306 19.1387C122.119 19.1387 122.85 18.9909 123.498 18.6954C124.147 18.3998 124.674 17.9861 125.081 17.4541C125.488 16.9221 125.75 16.3192 125.868 15.6453H124.153C124.035 16.3073 123.714 16.8364 123.189 17.2324C122.665 17.6284 122.013 17.8265 121.235 17.8265C120.375 17.8265 119.647 17.5486 119.052 16.993C118.456 16.4374 118.141 15.6039 118.106 14.4927H125.868C125.915 14.2444 125.938 13.9488 125.938 13.606C125.938 12.7903 125.753 12.0455 125.382 11.3717C125.01 10.6978 124.474 10.1599 123.773 9.75795C123.071 9.356 122.249 9.15502 121.306 9.15502C120.375 9.15502 119.55 9.356 118.831 9.75795C118.112 10.1599 117.549 10.7392 117.142 11.4958C116.735 12.2524 116.532 13.139 116.532 14.1557C116.532 15.1724 116.735 16.0561 117.142 16.8068C117.549 17.5575 118.112 18.1338 118.831 18.5358C119.55 18.9377 120.375 19.1387 121.306 19.1387ZM124.312 13.7124H118.106C118.153 12.6484 118.477 11.8416 119.078 11.2919C119.679 10.7421 120.422 10.4673 121.306 10.4673C121.86 10.4673 122.373 10.5855 122.844 10.8219C123.316 11.0584 123.687 11.4189 123.958 11.9036C124.229 12.3883 124.347 12.9913 124.312 13.7124ZM132.746 19.0146L136.547 9.27916H134.814L131.809 17.2945L128.767 9.27916H127.035L130.836 19.0146H132.746Z" fill="#525866" fill-opacity="0.64"/>
<path d="M36.7906 11.9978L32.0612 7.2545L34.4247 2.51288L42.109 10.2198C43.0881 11.2017 43.0881 12.7938 42.109 13.7758L32.651 23.2615C31.6719 24.2435 30.0845 24.2435 29.1054 23.2615C28.1263 22.2795 28.1263 20.6875 29.1054 19.7055L36.7906 11.9978Z" fill="#525866" fill-opacity="0.64"/>
<path d="M29.1067 0.736269C30.0858 -0.245697 31.6736 -0.245285 32.6527 0.736681L34.4259 2.5151L13.7379 23.2637C12.7588 24.2457 11.171 24.2453 10.1919 23.2633L8.41869 21.4849L29.1067 0.736269ZM20.2402 7.25755L16.6937 10.8144L11.9643 6.07111L6.05275 12L10.7822 16.7433L8.41869 21.4849L0.734322 13.778C-0.244774 12.796 -0.244774 11.204 0.734322 10.222L10.1919 0.736681C11.171 -0.245285 12.7588 -0.245697 13.7379 0.736269L20.2402 7.25755Z" fill="#0E1217"/>
</g>
<defs>
<clipPath id="clip0_81_4943">
<rect width="136.549" height="24" fill="white"/>
</clipPath>
</defs>
</svg>
